<?xml version="1.0" standalone="no"?>
<!DOCTYPE svg PUBLIC "-//W3C//DTD SVG 20010904//EN"
 "http://www.w3.org/TR/2001/REC-SVG-20010904/DTD/svg10.dtd">
<svg version="1.0" xmlns="http://www.w3.org/2000/svg"
 width="980.000000pt" height="980.000000pt" viewBox="0 0 980.000000 980.000000"
 preserveAspectRatio="xMidYMid meet">
<metadata>
Created by potrace 1.14, written by Peter Selinger 2001-2017
</metadata>
<g transform="translate(0.000000,980.000000) scale(0.100000,-0.100000)"
fill="#000000" stroke="none">
<path d="M7725 7399 c-198 -98 -826 -387 -1205 -554 -147 -65 -1384 -574
-2115 -870 -126 -51 -304 -123 -395 -160 -455 -185 -1041 -422 -1348 -547
-384 -155 -421 -172 -509 -234 -109 -78 -173 -174 -196 -296 -18 -100 20 -230
100 -342 20 -28 209 -224 419 -436 350 -353 385 -391 416 -455 l33 -70 250 -2
250 -3 -25 21 c-14 11 -56 51 -95 88 -38 37 -266 249 -505 472 -239 223 -454
427 -478 453 -130 141 -104 285 67 370 38 19 364 137 876 317 311 109 539 189
1480 522 1901 673 2514 895 2608 945 131 70 231 182 302 337 20 44 70 163 111
264 68 169 86 232 67 230 -5 0 -53 -22 -108 -50z"/>
<path d="M7205 6329 c-195 -76 -590 -209 -1680 -567 -385 -127 -1031 -339
-1435 -472 -404 -133 -879 -289 -1055 -347 -607 -199 -612 -201 -651 -245 -53
-58 -43 -119 33 -200 44 -45 63 -58 85 -58 22 0 972 243 1080 276 12 4 15 13
11 43 -3 21 -1 41 5 45 9 5 503 140 997 271 50 13 293 78 540 145 248 66 576
155 730 196 1017 273 1008 270 1090 319 112 68 223 196 335 390 52 90 130 249
130 266 0 17 -36 7 -215 -62z"/>
<path d="M6695 5439 c-104 -27 -399 -103 -655 -169 -256 -66 -505 -131 -555
-144 -49 -13 -470 -122 -935 -241 -465 -120 -937 -241 -1050 -270 -113 -29
-338 -87 -500 -129 -162 -42 -326 -84 -363 -93 -38 -10 -68 -22 -68 -28 1 -5
54 -58 118 -117 129 -117 138 -121 238 -98 22 5 101 20 175 34 311 58 1035
197 1038 200 1 2 -2 14 -7 28 -13 34 2 55 47 67 20 6 177 37 347 70 171 33
650 125 1066 205 416 80 780 154 810 165 96 33 162 72 219 130 49 51 291 387
306 425 9 24 -21 20 -231 -35z"/>
<path d="M6135 4685 c-126 -24 -329 -62 -450 -85 -121 -23 -265 -50 -320 -60
-55 -11 -271 -51 -480 -90 -209 -39 -497 -93 -640 -120 -143 -27 -406 -77
-585 -110 -179 -34 -395 -74 -480 -90 -85 -16 -185 -35 -222 -41 -38 -7 -68
-16 -68 -20 0 -5 63 -67 141 -139 118 -109 146 -130 172 -130 17 0 122 11 232
26 110 14 454 57 765 97 l565 72 -3 36 c-2 21 1 40 7 44 15 8 143 28 806 124
116 17 240 40 277 51 78 25 167 76 222 128 64 61 306 332 306 342 0 12 25 16
-245 -35z"/>
<path d="M4265 3850 c-319 -38 -643 -76 -720 -84 -77 -9 -175 -21 -218 -27
-73 -11 -77 -12 -60 -28 10 -9 82 -76 161 -148 l143 -133 1056 0 c902 0 1055
2 1043 14 -14 13 -700 440 -747 465 -29 15 -5 17 -658 -59z"/>
<path d="M3568 3070 c-100 -12 -149 -25 -220 -61 -76 -39 -118 -77 -154 -141
-27 -49 -29 -61 -29 -153 0 -116 14 -151 86 -223 92 -91 244 -136 454 -136
359 2 544 113 563 339 14 174 -112 315 -323 360 -88 19 -276 26 -377 15z m247
-131 c97 -27 139 -94 140 -224 0 -110 -29 -169 -100 -205 -42 -21 -64 -24
-140 -24 -166 1 -236 59 -243 199 -7 137 36 221 129 250 54 17 160 19 214 4z"/>
<path d="M5567 3054 c-14 -5 -17 -14 -15 -47 l3 -42 50 -7 c29 -4 55 -14 62
-24 15 -21 19 -410 4 -433 -5 -7 -35 -19 -67 -25 l-59 -12 0 -39 0 -40 405 0
c390 0 408 1 475 22 133 42 202 108 232 220 40 151 -24 307 -150 366 -111 53
-173 59 -562 63 -198 2 -368 1 -378 -2z m712 -147 c13 -7 34 -25 45 -40 19
-25 21 -42 21 -151 0 -191 -18 -206 -250 -206 l-145 0 0 211 0 212 153 -8 c83
-4 163 -12 176 -18z"/>
<path d="M6850 3011 l0 -48 61 -7 c33 -3 65 -8 70 -12 20 -12 6 -54 -44 -135
-29 -46 -78 -127 -109 -179 -71 -120 -102 -151 -162 -157 l-46 -6 0 -43 0 -44
216 0 215 0 -3 42 c-3 42 -4 43 -47 50 -63 11 -70 21 -46 66 l20 37 85 7 c47
3 141 4 209 1 104 -5 126 -9 141 -25 44 -48 28 -77 -45 -86 l-46 -5 3 -44 3
-44 285 0 c157 0 288 1 293 1 4 0 7 20 7 44 l0 43 -50 5 c-61 6 -107 39 -146
105 -15 26 -87 139 -161 251 -110 168 -139 206 -168 218 -27 11 -89 14 -285
14 l-250 0 0 -49z m399 -199 c34 -51 61 -95 61 -97 0 -3 -56 -5 -125 -5 -69 0
-125 2 -125 4 0 5 99 166 113 184 5 7 11 11 13 10 1 -2 30 -45 63 -96z"/>
<path d="M1892 3008 l3 -43 48 -7 c79 -11 77 -3 77 -243 0 -161 -3 -215 -13
-223 -7 -6 -35 -15 -62 -19 l-50 -8 -3 -43 -3 -42 270 0 271 0 0 44 0 43 -45
6 c-69 7 -85 27 -85 104 l0 63 210 0 210 0 0 -64 c0 -78 -12 -93 -80 -102
l-50 -7 0 -43 0 -44 268 2 267 3 1 30 c1 47 -4 52 -56 59 -81 11 -80 9 -80
240 0 235 0 236 78 244 29 2 52 7 53 11 0 3 1 22 2 41 l2 35 -267 3 -268 2 0
-43 0 -44 53 -6 c66 -8 77 -24 77 -104 l0 -63 -210 0 -210 0 0 69 c0 80 7 89
77 99 l48 7 3 43 3 42 -271 0 -271 0 3 -42z"/>
<path d="M4304 3026 c-3 -8 -4 -29 -2 -48 3 -30 6 -33 38 -36 52 -4 87 -21 94
-45 3 -12 6 -103 6 -202 0 -218 -3 -225 -80 -240 l-55 -10 -3 -43 -3 -42 215
0 216 0 0 44 0 44 -50 7 c-80 11 -80 11 -80 216 0 98 2 179 4 179 3 0 75 -93
162 -207 86 -115 173 -225 192 -245 l36 -38 183 0 183 0 0 268 c0 199 3 273
13 285 7 10 35 20 67 24 l55 8 0 40 0 40 -212 3 -213 2 0 -45 c0 -43 1 -45 29
-45 46 0 91 -20 96 -43 3 -12 4 -98 3 -192 l-3 -169 -181 240 c-110 144 -192
245 -208 252 -42 19 -495 17 -502 -2z"/>
</g>
</svg>
